<svg width="41" height="42" viewBox="0 0 41 42" fill="none" xmlns="http://www.w3.org/2000/svg">
<rect x="-0.5" y="0.5" width="40" height="40" rx="20" transform="matrix(-1 0 0 1 40 0.780823)" stroke="#C2C2C2"/>
<g clip-path="url(#clip0_11_82)">
<path d="M25.2271 12.7486C25.3173 12.6531 25.3878 12.5408 25.4347 12.4181C25.4815 12.2954 25.5037 12.1646 25.4999 12.0333C25.4962 11.902 25.4667 11.7727 25.413 11.6528C25.3593 11.5329 25.2826 11.4248 25.1871 11.3346C25.0916 11.2444 24.9793 11.1738 24.8566 11.127C24.7339 11.0802 24.6031 11.058 24.4718 11.0617C24.3405 11.0655 24.2112 11.095 24.0913 11.1487C23.9714 11.2024 23.8633 11.2791 23.7731 11.3746L15.2731 20.3746C15.0976 20.5603 14.9997 20.8061 14.9997 21.0616C14.9997 21.3171 15.0976 21.5629 15.2731 21.7486L23.7731 30.7496C23.8627 30.8472 23.9708 30.9259 24.0912 30.9814C24.2115 31.0368 24.3416 31.0677 24.474 31.0724C24.6064 31.0772 24.7384 31.0555 24.8624 31.0088C24.9863 30.962 25.0998 30.8911 25.1961 30.8001C25.2924 30.7092 25.3697 30.6 25.4235 30.4789C25.4772 30.3579 25.5064 30.2273 25.5093 30.0949C25.5122 29.9624 25.4887 29.8307 25.4403 29.7074C25.3918 29.5841 25.3194 29.4717 25.2271 29.3766L17.3751 21.0616L25.2271 12.7486Z" fill="#C2C2C2"/>
</g>
<defs>
<clipPath id="clip0_11_82">
<rect width="12" height="21" fill="white" transform="matrix(-1 0 0 1 26.5 10.7808)"/>
</clipPath>
</defs>
</svg>
