<svg width="253" height="41" viewBox="0 0 253 41" fill="none" xmlns="http://www.w3.org/2000/svg">
<path d="M5.27402 39.4991H5.98567V38.7875V16.3813L10.6785 38.8796L10.7967 39.4458H11.3752H15.2965H15.8809L15.9945 38.8726L20.4335 16.4763V38.7875V39.4991H21.1451H25.0133H25.7249V38.7875V2.02075V1.30909H25.0133H19.2975H18.7131L18.5994 1.8823L13.4621 27.7857L8.1244 1.87714L8.00736 1.30909H7.42738H1.71165H1V2.02075V38.7875V39.4991H1.71165H5.27402ZM45.8489 39.4991H46.4361L46.5477 38.9229L47.8716 32.0885H55.9755L57.2996 38.9229L57.4112 39.4991H57.9983H62.0789H62.9394L62.7779 38.6539L55.7529 1.88718L55.6425 1.30909H55.054H49.1056H48.517L48.4066 1.88718L41.3815 38.6539L41.2201 39.4991H42.0806H45.8489ZM82.8084 39.4991H83.52V38.7875V13.6764L91.541 39.0024L91.6984 39.4991H92.2195H96.473H97.1846V38.7875V2.02075V1.30909H96.473H92.8376H92.126V2.02075V24.042L85.0283 1.80436L84.8701 1.30909H84.3504H79.1464H78.4347V2.02075V38.7875V39.4991H79.1464H82.8084ZM118.671 39.4991H119.383V38.7875V2.02075V1.30909H118.671H114.571H113.859V2.02075V38.7875V39.4991H114.571H118.671ZM140.863 39.4991H141.575V38.7875V23.5814H149.297H150.008V22.8698V19.148V18.4363H149.297H141.575V6.48085H151.35H152.062V5.7692V2.02075V1.30909H151.35H136.762H136.051V2.02075V38.7875V39.4991H136.762H140.863ZM173.887 33.6135L173.886 33.6121C173.297 32.8722 172.951 31.7425 172.951 30.1209V10.6874C172.951 9.08603 173.296 7.95786 173.888 7.20674C174.449 6.49618 175.305 6.09538 176.593 6.09538C177.907 6.09538 178.766 6.49891 179.314 7.2034C179.9 7.95485 180.241 9.08441 180.241 10.6874V30.1209C180.241 31.8116 179.891 32.9474 179.313 33.6519C178.756 34.3296 177.895 34.7194 176.593 34.7194C175.304 34.7194 174.447 34.3201 173.887 33.6135ZM217.426 39.4991H218.138V38.7875V35.0722V34.3605H217.426H207.65V2.02075V1.30909H206.939H202.838H202.127V2.02075V38.7875V39.4991H202.838H217.426ZM233.729 38.7875V39.4991H234.441H243.062C245.978 39.4991 248.288 38.6657 249.851 36.8839V36.8831C251.382 35.13 252.1 32.705 252.1 29.7088V11.1792C252.1 8.16578 251.385 5.72487 249.853 3.95468V3.95382C248.292 2.15294 245.982 1.30909 243.062 1.30909H234.441H233.729V2.02075V38.7875ZM55.1398 27.1562H48.6569L51.8589 10.4111L55.1398 27.1562ZM167.5 10.92V29.9147C167.5 32.8897 168.244 35.3264 169.814 37.1397C171.409 38.9824 173.709 39.858 176.593 39.858C179.509 39.858 181.831 38.9845 183.437 37.1413C185.016 35.328 185.765 32.8907 185.765 29.9147V10.92C185.765 7.91607 185.017 5.46585 183.436 3.65946C181.831 1.82119 179.508 0.950195 176.593 0.950195C173.694 0.950195 171.388 1.82197 169.8 3.66241C168.238 5.46884 167.5 7.9179 167.5 10.92ZM243.007 34.3605H239.26V6.48085H242.954C244.282 6.48085 245.159 6.86675 245.722 7.53046C246.303 8.21664 246.657 9.32216 246.657 10.9732V29.8682C246.657 31.5208 246.307 32.6278 245.732 33.3142C245.177 33.9765 244.315 34.3605 243.007 34.3605Z" fill="#212121" stroke="white" stroke-width="1.33966" stroke-linecap="round"/>
</svg>
