<svg width="41" height="42" viewBox="0 0 41 42" fill="none" xmlns="http://www.w3.org/2000/svg">
<rect x="0.5" y="1.28082" width="40" height="40" rx="20" stroke="#C2C2C2"/>
<g clip-path="url(#clip0_11_85)">
<path d="M15.7729 12.7486C15.6827 12.6531 15.6122 12.5408 15.5653 12.4181C15.5185 12.2954 15.4963 12.1646 15.5001 12.0333C15.5038 11.902 15.5333 11.7727 15.587 11.6528C15.6407 11.5329 15.7174 11.4248 15.8129 11.3346C15.9084 11.2444 16.0207 11.1738 16.1434 11.127C16.2661 11.0802 16.3969 11.058 16.5282 11.0617C16.6595 11.0655 16.7888 11.095 16.9087 11.1487C17.0286 11.2024 17.1367 11.2791 17.2269 11.3746L25.7269 20.3746C25.9024 20.5603 26.0003 20.8061 26.0003 21.0616C26.0003 21.3171 25.9024 21.5629 25.7269 21.7486L17.2269 30.7496C17.1373 30.8472 17.0292 30.9259 16.9088 30.9814C16.7885 31.0368 16.6584 31.0677 16.526 31.0724C16.3936 31.0772 16.2616 31.0555 16.1376 31.0088C16.0137 30.962 15.9002 30.8911 15.8039 30.8001C15.7076 30.7092 15.6303 30.6 15.5765 30.4789C15.5228 30.3579 15.4936 30.2273 15.4907 30.0949C15.4878 29.9624 15.5113 29.8307 15.5597 29.7074C15.6082 29.5841 15.6806 29.4717 15.7729 29.3766L23.6249 21.0616L15.7729 12.7486Z" fill="#C2C2C2"/>
</g>
<defs>
<clipPath id="clip0_11_85">
<rect width="12" height="21" fill="white" transform="translate(14.5 10.7808)"/>
</clipPath>
</defs>
</svg>
